<svg xmlns="http://www.w3.org/2000/svg" xmlns:xlink="http://www.w3.org/1999/xlink" width="380" height="100" viewBox="0 0 380 100"><defs><linearGradient id="a" x1="0.254" y1="0.5" x2="0.797" y2="0.5" gradientUnits="objectBoundingBox"><stop offset="0" stop-color="#fc3258"/><stop offset="1" stop-color="#801bff"/></linearGradient><linearGradient id="b" x1="-0.083" y1="0.5" x2="1.337" y2="0.5" gradientUnits="objectBoundingBox"><stop offset="0" stop-color="#ff0062"/><stop offset="0.124" stop-color="#ff5252"/><stop offset="0.832" stop-color="#8000ff"/><stop offset="1" stop-color="#8000ff"/></linearGradient></defs><g transform="translate(-171 -3814)"><path d="M50,3A47.013,47.013,0,0,0,31.706,93.308,46.7,46.7,0,0,0,50,97H330A47.013,47.013,0,0,0,348.294,6.692,46.7,46.7,0,0,0,330,3H50m0-3H330a50,50,0,0,1,0,100H50A50,50,0,0,1,50,0Z" transform="translate(171 3814)" opacity="0.597" fill="url(#a)"/><path d="M1770.315-4975.66v-27.12h3.12v10.89h4.171v2.579h-4.171v13.65Zm28.05-.029v-27.09h3.089v27.09Zm-57.36,0v-9.271h-6.18v9.271h-3.151v-9.271h-6v-2.549h24.571l.029,2.549h-6.12v9.271Zm-39.391-5.07c0-3.12,3.691-5.041,9.541-5.041,5.76,0,9.479,1.92,9.479,5.041,0,3.149-3.719,5.07-9.479,5.07C1705.306-4975.689,1701.615-4977.61,1701.615-4980.759Zm3.06,0c0,1.709,2.46,2.7,6.48,2.7,3.99,0,6.39-.989,6.39-2.7,0-1.68-2.4-2.671-6.39-2.671C1707.135-4983.43,1704.675-4982.439,1704.675-4980.759Zm-18.029,5.07v-27.09h2.97v27.09Zm-63,0V-4987h-10.59v-2.549h17.611a41.241,41.241,0,0,0,.78-9.09H1616v-2.49h18.479v2.371a47.658,47.658,0,0,1-.689,9.21h3.78V-4987h-10.8v11.311Zm36.3-.031v-27.06h2.941v27.06Zm-68.97-.479v-8.46h3.12v5.939h15.361v2.521Zm90-.781v-12.54h-4.981a20.208,20.208,0,0,1-7.92,8.1l-1.769-2.19c5.64-3.36,8.309-7.8,8.76-13.35h-7.47v-2.49h10.53a23.162,23.162,0,0,1-1.14,7.44h3.99v-10.11h2.91v25.139Zm-26.461,0v-12.99h-2.88c-.27,5.281-2.49,8.52-5.79,8.52-3.51,0-5.82-3.689-5.82-9.629s2.31-9.6,5.82-9.6c3.24,0,5.43,3.089,5.759,8.159h2.91v-9.749h2.881v25.289Zm-11.67-14.1c0,4.29,1.14,6.72,3,6.72s3-2.43,3-6.72-1.14-6.69-3-6.69S1642.845-4995.37,1642.845-4991.08Zm136.441,8.1c7.11-3.42,10.469-8.19,11.01-14.43h-9.66v-2.521h12.84c0,8.07-3.24,14.911-12.54,19.411Zm-25.71-4.86c0-3.69,2.82-6.331,6.719-6.331,3.87,0,6.721,2.641,6.721,6.331,0,3.72-2.85,6.33-6.721,6.33C1756.4-4981.51,1753.575-4984.12,1753.575-4987.84Zm2.939,0a3.606,3.606,0,0,0,3.78,3.78,3.606,3.606,0,0,0,3.78-3.78,3.606,3.606,0,0,0-3.78-3.78A3.606,3.606,0,0,0,1756.515-4987.84Zm-150.93,5.01v-19.92h3.091v19.92Zm-18.839-5.489c4.2-1.32,6.629-4.621,6.629-8.161v-.45h-5.88v-2.46h5.88v-3.27h3.091v3.27h5.82v2.46h-5.82v.45c0,3.33,2.46,6.45,6.629,7.68l-1.44,2.431a10.654,10.654,0,0,1-6.69-5.491,10.783,10.783,0,0,1-6.719,5.97Zm112.29.419v-2.49h9.6v-4.979h3.12v4.979h11.7v2.49Zm29.25-7.92c0-3.63,3.9-5.97,9.63-5.97,5.7,0,9.6,2.34,9.6,5.97,0,3.659-3.9,6-9.6,6C1732.185-4989.82,1728.285-4992.161,1728.285-4995.82Zm3.18,0c0,2.19,2.55,3.51,6.45,3.51,3.87,0,6.421-1.32,6.421-3.51,0-2.16-2.55-3.48-6.421-3.48C1734.015-4999.3,1731.465-4997.979,1731.465-4995.82Zm-14.79,3.48a24.183,24.183,0,0,0,.72-6.66h-15.54v-2.491h18.6v2.281a25.646,25.646,0,0,1-.75,7.2Zm35.58-3.75v-2.521h6.45v-3.78h3.089v3.78h6.33v2.521Z" transform="translate(-1310 8852)" fill="url(#b)"/><g transform="translate(223.312 3868.921) rotate(-45)"><path d="M13.74,17.75h2.4A8.628,8.628,0,0,0,24.9,9.25,8.628,8.628,0,0,0,16.143.75h-2.4" transform="translate(7.298 0.443)" fill="none" stroke="#fc4854" stroke-linecap="round" stroke-linejoin="round" stroke-width="3"/><path d="M11.89.75H9.5A8.628,8.628,0,0,0,.75,9.25,8.628,8.628,0,0,0,9.5,17.75H11.89" transform="translate(0.444 0.444)" fill="none" stroke="#fc4854" stroke-linecap="round" stroke-linejoin="round" stroke-width="3"/><line x2="12.731" transform="translate(10.328 9.694)" fill="none" stroke="#fc4854" stroke-linecap="round" stroke-linejoin="round" stroke-width="3"/></g></g></svg>