<svg xmlns="http://www.w3.org/2000/svg" xmlns:xlink="http://www.w3.org/1999/xlink" width="615.2" height="382.535" viewBox="0 0 615.2 382.535"><defs><filter id="a" x="41.65" y="21.146" width="533.175" height="259.815" filterUnits="userSpaceOnUse"><feOffset dy="3" input="SourceAlpha"/><feGaussianBlur stdDeviation="30" result="b"/><feFlood flood-color="#0515d2"/><feComposite operator="in" in2="b"/><feComposite in="SourceGraphic"/></filter><filter id="c" x="0" y="123.146" width="615.2" height="259.39" filterUnits="userSpaceOnUse"><feOffset dy="3" input="SourceAlpha"/><feGaussianBlur stdDeviation="30" result="d"/><feFlood flood-color="#0515d2"/><feComposite operator="in" in2="d"/><feComposite in="SourceGraphic"/></filter></defs><g transform="translate(-97.4 -506.156)"><path d="M-19.08-49.32c0-12.33-6.21-18-18-18H-69.12V13.59h18.9V-13.32h13.14c11.79,0,18-6.03,18-18.36Zm-31.14-2.34h6.39c4.32,0,6.3,2.43,6.3,6.3v10.08c0,3.87-1.98,6.3-6.3,6.3h-6.39ZM-8.64-67.32V13.59h19.8V-67.32ZM52.47-5.04c0,3.15-2.61,4.68-5.76,4.68s-5.85-1.53-5.85-4.68V-33.39c0-3.15,2.7-4.86,5.85-4.86s5.76,1.71,5.76,4.86v4.86H70.56v-9C70.56-49.68,58.77-54,46.71-54c-12.15,0-23.85,4.32-23.85,16.47V-1.08c0,12.15,12.06,16.47,24.21,16.47,12.06,0,23.85-4.32,23.85-16.47V-12.69H52.47Z" transform="translate(439 575.156)" fill="#fff"/><g transform="matrix(1, 0, 0, 1, 97.4, 506.16)" filter="url(#a)"><path d="M-127.925-36.21h27.2V-64.855h-72.25V-36.21h27.115v6.545h-30.09V-16.49h78.2V-29.665h-30.175Zm9.265-17.6v6.545h-36.38v-6.545ZM-119.085-.34v15.3h18.36V-11.985H-173.4V-.34Zm101.66-49.98V-63.58h-72.25v13.26Zm.85,32.215v-13.26H-28.22l1.53-17.255H-43.775L-45.05-31.365H-62.39L-63.58-48.62H-80.665l1.53,17.255h-11.39V-18.1Zm2.125,30.94V-1.615H-28.22V-15.98H-45.475V-1.615h-16.15V-15.98H-78.88V-1.615H-92.65v14.45ZM74.12,14.11V-64.855H59.245V-38.93h-8.16v15.3h8.16V14.11Zm18.53,0V-64.855H77.435V14.11ZM57.12,7.225v-15.3l-24.4,2.8V-20.06H47.43L51.68-62.3H16.15V-47.43H33.66L32.3-34.17H16.15V11.56ZM142.545-37.57v16.235H157.42v-43.52H142.545V-52.02H136.17V-64.005h-14.2v7.4H114.24v-7.4H99.45V-23.12h36.72V-37.57Zm18.19-27.285v43.52H175.95v-43.52Zm-46.5,29.92V-44.8h7.735v9.86Zm8.33,36.21h53.38V-19.3H103.02V-9.69H156.4v2.465H103.02V14.11h74.205V3.91H122.57Z" transform="translate(307.6 173)" fill="#fff"/></g><g transform="matrix(1, 0, 0, 1, 97.4, 506.16)" filter="url(#c)"><path d="M-147.22-5.44l5.27-58.14h-73.1v15.725h52.615L-166.43-5.44Zm7.82,18.275V-3.315h-78.2v16.15ZM-33.235,14.11V-64.855H-52.36V14.11Zm-51.6-1.275c13.26,0,24.14-8.5,24.14-20.995V-42.585c0-12.5-10.88-21-24.14-21-13.175,0-23.97,8.5-23.97,21V-8.16C-108.8,4.335-98.005,12.835-84.83,12.835Zm.255-14.365a5.921,5.921,0,0,1-6.12-5.78V-43.435a6.1,6.1,0,0,1,6.12-5.865,6.179,6.179,0,0,1,6.205,5.865V-7.31A6,6,0,0,1-84.575-1.53ZM47.6-18.275v-17.17h8.84V-50.32H47.6V-64.855H28.9v46.58ZM-26.35-19.89c11.815-2.635,20.06-7.82,25.415-15.3C4.5-28.135,12.665-23.2,24.31-20.74V-36.125c-11.56-3.4-16.065-11.9-16.065-22.78V-64.43h-18.53v5.525c0,10.88-4.5,20.23-16.065,23.63Zm3.57,18.87c0,8.84,7.31,15.555,16.49,15.555H32.64c9.35,0,16.66-6.715,16.66-15.555,0-9.095-7.31-15.555-16.66-15.555H-6.29C-15.47-16.575-22.78-10.115-22.78-1.02ZM-.34,1.7C-2.38,1.7-4,1.02-4-1.02-4-3.315-2.38-3.825-.34-3.825H26.6c2.38,0,4,.51,4,2.805,0,2.04-1.615,2.72-4,2.72Zm111.1-19.635c12.58,0,21.42-10.285,21.42-22.95,0-12.835-8.84-23.12-21.42-23.12H79.56c-12.5,0-21.335,10.285-21.335,23.12,0,12.665,8.84,22.95,21.335,22.95ZM85.17-32.555c-4.675,0-7.82-3.57-7.82-8.33s3.145-8.33,7.82-8.33h20.145c4.675,0,7.82,3.57,7.82,8.33s-3.145,8.33-7.82,8.33Zm49.13,45.39V-2.72H56.1V12.835ZM215.475-16.66V-30.09H160.99v-4.25h53.635V-63.58h-72.25v12.92H196.01v3.91H142.375v30.09ZM217.6,12.835V-2.3H188.1V-14.11H168.9V-2.3H139.4v15.13Z" transform="translate(307.6 275)" fill="#fff"/></g><path d="M181,5885.156H171a23.979,23.979,0,0,1-24-24v-37a23.98,23.98,0,0,1,24-24h10a23.98,23.98,0,0,1,24,24v37a23.979,23.979,0,0,1-24,24Zm-6-68a10,10,0,0,0-10,10v31a10.011,10.011,0,0,0,10,10h2a10.011,10.011,0,0,0,10-10v-31a10.011,10.011,0,0,0-10-10Z" transform="translate(152.001 -5294)" fill="#fff"/></g></svg>