<svg xmlns="http://www.w3.org/2000/svg" xmlns:xlink="http://www.w3.org/1999/xlink" width="255.64" height="26.684" viewBox="0 0 255.64 26.684"><defs><linearGradient id="a" x1="-0.083" y1="0.5" x2="1.077" y2="0.5" gradientUnits="objectBoundingBox"><stop offset="0" stop-color="#ff0062"/><stop offset="0.124" stop-color="#ff5252"/><stop offset="0.832" stop-color="#8000ff"/><stop offset="1" stop-color="#8000ff"/></linearGradient></defs><path d="M470.864,1938.5c0,2.044-.952,3.276-4.4,6.328-4.508,4.032-5.376,5.628-5.376,7.952v4.452h13.552v-2.94h-9.828v-1.512c0-1.792,1.288-2.828,4.648-6.1,3.472-3.388,5.04-4.956,5.04-8.176v-1.288c0-3.7-2.828-5.768-6.692-5.768s-6.552,2.072-6.552,5.768v1.848h3.584v-1.848a2.66,2.66,0,0,1,2.968-2.828,2.727,2.727,0,0,1,3.052,2.828Zm6.3,13.608c0,3.7,3,5.768,6.748,5.768s6.748-2.072,6.748-5.768v-14.9c0-3.7-3-5.768-6.748-5.768s-6.748,2.072-6.748,5.768Zm3.584-14.9a3.184,3.184,0,0,1,6.328,0v14.9a3.184,3.184,0,0,1-6.328,0Zm22.372,1.288c0,2.044-.952,3.276-4.4,6.328-4.508,4.032-5.376,5.628-5.376,7.952v4.452H506.9v-2.94h-9.828v-1.512c0-1.792,1.288-2.828,4.648-6.1,3.472-3.388,5.04-4.956,5.04-8.176v-1.288c0-3.7-2.828-5.768-6.692-5.768s-6.552,2.072-6.552,5.768v1.848H497.1v-1.848a2.66,2.66,0,0,1,2.968-2.828,2.727,2.727,0,0,1,3.052,2.828Zm15.568,0c0,2.044-.952,3.276-4.4,6.328-4.508,4.032-5.376,5.628-5.376,7.952v4.452h13.552v-2.94H512.64v-1.512c0-1.792,1.288-2.828,4.648-6.1,3.472-3.388,5.04-4.956,5.04-8.176v-1.288c0-3.7-2.828-5.768-6.692-5.768s-6.552,2.072-6.552,5.768v1.848h3.584v-1.848a2.66,2.66,0,0,1,2.968-2.828,2.727,2.727,0,0,1,3.052,2.828Zm13.468,9.24c3.892-.364,7.168-2.072,8.512-5.012,1.316,2.94,4.564,4.648,8.512,5.012v-3.472c-3.64-.5-6.608-2.408-6.608-6.5v-.812h6.44v-3.3H542.6v-2.464h-3.864v2.464h-6.412v3.3h6.44v.812c0,4.088-3,6.02-6.608,6.5Zm23.6,9.8V1931.8h-3.976v25.732Zm-5.152-1.624v-3.444l-8.036.532v-5.32h-3.808v5.544l-7.476.5v3.416Zm33.152-5.376V1931.8h-3.976v18.732Zm-24.3-3.416c3.64-.952,7.028-3.22,8.316-6.188,1.316,2.968,4.676,5.236,8.344,6.188v-3.64c-3.556-1.12-6.356-4.172-6.356-7.952v-3.472h-3.948v3.472c0,3.78-2.8,6.832-6.356,7.952Zm24.78,10.416v-3.248H565.364v-5.432h-4v8.68Zm33.936,0V1931.8H614.2v25.732Zm-24.164-.756c9.464-1.736,15.708-8.484,15.708-21.056v-2.884H594.148v3.444h11.76c.028,9.744-4.48,15.092-11.9,16.856Zm40.264-18.508c1.512,1.9,5.8,3.08,11.676,3.164v-2.8c-5.4-.028-9.3-1.176-9.576-2.66v-.028h9.184v-2.8h-9.3v-1.96h-3.976v1.96h-9.3v2.8h9.184v.028c-.28,1.484-4.172,2.632-9.576,2.66v2.8C628.476,1941.352,632.76,1940.176,634.272,1938.272Zm12.768,4.032H621.5v2.8H632.34v2.016h-9.352v2.632H641.72v1.232H622.988v6.552h22.988v-2.688H626.824v-1.316h18.732v-6.412h-9.38V1945.1H647.04Zm32.76,8.232v-8.316h3.36v-3.444H679.8V1931.8h-3.92v18.732Zm-8.764-3.808V1932.2h-3.808v3.724h-6.664V1932.2h-3.836v14.532Zm-10.472-7.672h6.664v4.48h-6.664Zm19.8,18.48v-3.248h-18.4v-5.712h-3.948v8.96Zm11.62-11.424c2.66,0,5.012-.924,6.272-2.716h6.58v3.5h3.92V1931.8h-3.92v2.576H698.14c-1.26-1.736-3.556-2.6-6.16-2.6-3.976,0-7.252,2.072-7.252,6.076v2.212C684.728,1944.068,688,1946.112,691.98,1946.112Zm-3.5-8.372c0-1.9,1.512-2.94,3.528-2.94,1.988,0,3.528,1.036,3.528,2.94v2.436c0,1.9-1.54,2.912-3.528,2.912-2.016,0-3.528-1.008-3.528-2.912Zm16.352,2.6h-5.6v-2.492a2.407,2.407,0,0,0-.028-.448h5.628Zm-13.748,7.392c-3.052,0-5.46,2.044-5.46,4.956s2.408,4.984,5.46,4.984h12.6c3.08,0,5.488-2.072,5.488-4.984s-2.408-4.956-5.488-4.956Zm.7,6.832a1.982,1.982,0,0,1-2.24-1.876c0-1.148.952-1.848,2.24-1.848h11.172c1.344,0,2.3.7,2.3,1.848s-.952,1.876-2.3,1.876Zm21.42-4.172h3.276l.252-7.84v-10.92h-3.78v10.92Zm3.472,6.72v-3.668h-3.668v3.668Z" transform="translate(-461.092 -1931.188)" fill="url(#a)"/></svg>