<svg xmlns="http://www.w3.org/2000/svg" width="357.432" height="193.343" viewBox="0 0 357.432 193.343"><path d="M49.926,8.745V-40.333H39.644V8.745Zm-31.8-.9c8.215,0,14.84-5.3,14.84-12.985V-26.606c0-7.738-6.625-12.985-14.84-12.985-8.162,0-14.681,5.247-14.681,12.985V-5.141C3.445,2.544,9.964,7.844,18.126,7.844Zm.159-8.162c-3.021,0-5.088-1.961-5.088-4.346V-27.136c0-2.226,2.067-4.4,5.088-4.4,2.968,0,5.088,2.173,5.088,4.4V-4.664C23.373-2.279,21.253-.318,18.285-.318Zm96.036-11.289V-39.485h-44.2v27.878ZM80.03-31.27h24.433v11.448H80.03ZM116.547,7.844V-.795H97.308v-9.01H87.079v9.01H67.946V7.844ZM166-20.67v-7.473H131.758V-32.86h33.973v-7.367h-44.2V-20.67Zm1.961,11.66v-7.95h-48.6v7.95ZM166.526,8.745V1.484H131.493V-6.89h-9.964V8.745Zm56.021-31.8v7.95H232.67V-40.333H222.547v9.116h-7.526a29.378,29.378,0,0,0,.159-3.127v-5.141H186.3v7.632H205.9c0,6.837-6.572,9.01-19.875,9.063v7.632c10.759-.053,20.935-1.219,25.917-7.9ZM199.068.053h33.6V-13.621h-44.1v5.989h33.6v2.385h-33.6V8.745h44.891V2.6h-34.4ZM49.82,80.745V31.667H39.591V80.745ZM19.292,61.453c8.162,0,14.893-4.24,14.893-12.932V44.864c0-8.692-6.731-13.144-14.893-13.144S4.4,36.172,4.4,44.864v3.657C4.4,57.213,11.13,61.453,19.292,61.453Zm0-7.9c-2.915,0-5.3-1.7-5.3-4.558V44.334c0-2.862,2.385-4.717,5.3-4.717,3.021,0,5.406,1.855,5.406,4.717V49C24.7,51.86,22.313,53.556,19.292,53.556ZM37.9,78.307V69.721l-13.409.848V62.778H14.575v8.427l-12.19.689v8.639Zm60.95-30.051,1.431-16.483H55.65v7.473H89.888l-.795,9.01Zm3.392,1.484h-48.6v7.632H72.769v6.095H55.544v7.526H90.1V81.275h9.911V63.467H82.627V57.372h19.61Zm18.815,11.342c8.109,0,14.734-4.24,14.734-11.872V43.592c0-7.738-6.625-11.925-14.734-11.925-8.162,0-14.787,4.187-14.787,11.925V49.21C106.265,56.842,112.89,61.082,121.052,61.082Zm31.694,6.254V31.667H142.464V67.336ZM121.052,53.609c-2.809,0-4.876-1.484-4.876-3.869V43.168c0-2.438,2.067-4.081,4.876-4.081,2.7,0,4.876,1.643,4.876,4.081V49.74C125.928,52.125,123.755,53.609,121.052,53.609Zm32.542,27.136v-7.95H118.826V64H108.65V80.745Zm48.76-20.14V49.316h5.989V40.942h-5.989V31.667h-10.07V60.6ZM157.41,60.5c15.158-.106,29.15-5.724,29.15-22.684v-5.3H157.675v7.738h19.5c0,7.049-6.625,12.4-19.769,12.508Zm1.855,10.865c0,5.512,4.558,9.646,10.282,9.646h23.585c5.83,0,10.388-4.134,10.388-9.646,0-5.618-4.558-9.593-10.388-9.593H169.547C163.823,61.771,159.265,65.746,159.265,71.364Zm13.144,2.279c-1.7,0-3.021-.689-3.021-2.279,0-1.7,1.325-2.279,3.021-2.279h17.808c1.908,0,3.233.583,3.233,2.279,0,1.59-1.325,2.279-3.233,2.279Zm81.461,7.1V58.962h5.883V49.9H253.87V31.667H243.8V80.745ZM208.343,79A31.778,31.778,0,0,0,224.3,63.467,31.576,31.576,0,0,0,240.249,79V67.707c-5.671-3.71-10.971-9.487-10.971-24.486V32.78h-9.964V43.221c0,15-5.3,20.776-10.971,24.486Zm98.474-20.829v-26.5H296.535v26.5Zm-13.356-4.4V45.076l-22.684,2.173v-15h-10.07V56.736Zm3.18,25.546v1.431h10.176V59.651H262.933V80.745ZM273.109,66.965h23.532v5.088l-23.532.9Zm85.277,13.78V31.667H348.1V80.745Zm-31.8-.9c8.215,0,14.84-5.3,14.84-12.985V45.394c0-7.738-6.625-12.985-14.84-12.985-8.162,0-14.681,5.247-14.681,12.985V66.859C311.9,74.544,318.424,79.844,326.586,79.844Zm.159-8.162c-3.021,0-5.088-1.961-5.088-4.346V44.864c0-2.226,2.067-4.4,5.088-4.4,2.968,0,5.088,2.173,5.088,4.4V67.336C331.833,69.721,329.713,71.682,326.745,71.682ZM16.059,104.144H7.208c0,2.756-3.074,5.035-6.254,5.035v6.89H6.519v36.146h9.54Zm13.409,15.847v-8.957h-8.9v8.957Zm0,25.069v-8.9h-8.9v8.9ZM46.9,104.144H38.054c0,2.756-3.074,5.035-6.254,5.035v6.89h5.565v36.146H46.9Zm41.287,18.5v17.437H98.315V103.667H88.192v11.66H78.228v7.314ZM51.251,134.354c6.943-1.007,12.614-3.5,15.635-8.48,2.968,4.982,8.639,7.473,15.635,8.48v-8.268c-6.095-.9-10.918-4.452-11.024-11.183v-2.226H81.991v-8.109H51.781v8.109H62.275v1.855c0,7.049-4.823,10.653-11.024,11.554Zm47.912,18.391v-7.95H64.5V136.05H54.325v16.695Zm48.813-22.154v-9.858h5.989v-8.427h-5.989v-8.639h-10.07v26.924ZM135.1,126.669V119.09l-21.571,1.537v-8.586h17.808v-7.526H103.456v24.274Zm2.756,24.645v1.431h10.123V132.128H105.682v20.617Zm-22.048-11.925h22.048v4.77l-22.048.848Zm40.121-19.345v8.109h32.86l-.848,12.773h9.911l2.279-36.411H155.4v8.639h34.4l-.477,6.89Zm23.055,11.448H169.07v11.713H153.488v8.639h48.6v-8.639H178.981Zm26.5.583c7.579-.318,13.356-3.445,16.218-8.162,2.915,4.4,8.639,7.314,16.112,7.632v-7.9c-5.035-.371-11.236-2.862-11.236-8.9v-.53h10.706v-7.738H226.787v-3.922H216.505v3.922H206.011v7.738h10.706v.53c0,6.042-6.148,9.063-11.236,9.434Zm47.011.424V103.667H242.263V132.5Zm-44.52,10.865c0,5.565,4.558,9.646,10.282,9.646h24.274c5.83,0,10.388-4.081,10.388-9.646,0-5.671-4.558-9.646-10.388-9.646H218.254C212.53,133.718,207.972,137.693,207.972,143.364Zm12.932,2.173c-1.7,0-2.809-.742-2.809-2.173,0-1.484,1.113-2.332,2.809-2.332h18.921c1.908,0,3.021.848,3.021,2.332,0,1.431-1.113,2.173-3.021,2.173Z" transform="translate(-0.954 40.333)" fill="#111"/></svg>