<svg xmlns="http://www.w3.org/2000/svg" width="434.123" height="194.456" viewBox="0 0 434.123 194.456"><path d="M4.081-17.278c11.448-.053,18.709-4.558,22.419-9.7,3.657,5.141,11.13,9.646,22.472,9.7V-25.7C38-25.758,31.641-32.7,31.641-38.16v-1.59H21.412v1.59c0,5.459-6.36,12.4-17.331,12.455ZM31.641,9.275V-4.876H50.827v-8.48H2.226v8.48H21.359V9.275ZM91.266-31.588H82.521c-1.431-5.777-7.049-8.745-13.674-8.745-7.738,0-13.992,3.975-13.992,11.66v2.438c0,7.685,6.254,11.607,13.992,11.607,6.678,0,12.3-2.968,13.674-8.745h8.745v9.328h10.123V-40.333H91.266ZM73.723-25.652c0,2.491-2.12,3.975-4.823,3.975s-4.77-1.484-4.77-3.975v-3.657c0-2.491,2.067-3.975,4.77-3.975s4.823,1.484,4.823,3.975ZM67.2-9.54v-3.233H57.134V8.745L91.266,7.261V8.745h10.123V-12.773H91.266V-9.54Zm0,10.6V-2.6H91.266V.159ZM156.88-21.359V-3.922H167V-40.333H156.88v11.66h-9.964v7.314ZM119.939-9.646c6.943-1.007,12.614-3.5,15.635-8.48,2.968,4.982,8.639,7.473,15.635,8.48v-8.268c-6.1-.9-10.918-4.452-11.024-11.183v-2.226h10.494v-8.109h-30.21v8.109h10.494v1.855c0,7.049-4.823,10.653-11.024,11.554ZM167.851,8.745V.795H133.189V-7.95H123.013v16.7Zm31.058-48.6h-8.851c0,2.756-3.074,5.035-6.254,5.035v6.89h5.565V8.215h9.54Zm13.409,15.847v-8.957h-8.9v8.957Zm0,25.069v-8.9h-8.9v8.9Zm17.437-40.916H220.9c0,2.756-3.074,5.035-6.254,5.035v6.89h5.565V8.215h9.54ZM234.1-12.879c7-.318,12.72-2.385,15.741-6.625,2.968,4.24,8.692,6.307,15.688,6.625V-20.3c-6.148-.53-10.706-2.6-10.812-9.169v-1.06H265v-7.208H254.824v-3.71h-9.911v3.71H234.631v7.208h10.335v.689c0,6.837-4.558,9.01-10.865,9.54ZM271.1-21.942v10.07h10.07V-40.333H271.1v11.077h-8.427v7.314Zm-.053,29.256V8.745h10.123v-19.08H237.122V8.745Zm-23.8-10.6h23.8v3.6l-23.8.848Zm83.74-8.268v-11.13h5.83v-8.427h-5.83v-9.222h-10.07v28.779Zm-45.474-2.332c7.1-1.59,12.72-5.088,15.741-9.805,3.021,4.717,8.48,8.215,15.688,9.805v-8.9c-7-2.12-10.706-7.42-10.706-14.31v-2.915H296.217V-37.1c0,6.89-3.657,12.19-10.706,14.31ZM330.985,9.275V-10.017H287.9v7.95h32.648V9.275Zm39.008-20.511c7.844,0,13.356-6.36,13.356-14.2,0-7.95-5.512-14.31-13.356-14.31H351.178c-7.791,0-13.3,6.36-13.3,14.31,0,7.844,5.512,14.2,13.3,14.2ZM353.934-19.5a5.638,5.638,0,0,1-5.777-5.936,5.667,5.667,0,0,1,5.777-5.936h13.409a5.667,5.667,0,0,1,5.777,5.936,5.638,5.638,0,0,1-5.777,5.936ZM384.939,7.844v-8.8h-48.6v8.8Zm49.714-18.338v-7.685H399.991v-3.5h34.132V-39.485h-44.2v7.42h34.185v3.286H389.921v18.285Zm1.7,18.338V-.689H417.163v-8H406.881v8H387.748V7.844ZM47.064,80.745V58.962h7.049V49.9H47.064V31.667H36.994V80.745ZM34.715,76.77V67.919l-20.988,1.59V33.1H3.657V79.049Zm64.978-8.957V52.655h5.83V44.016h-5.83V31.667H89.623V67.813ZM82.68,58.856V32.515H54.855V58.856Zm-18.126-18.6H73.14V51.118H64.554Zm36.2,40.492v-7.95H67.31V62.99H57.134V80.745Zm51.887,0V31.667H142.411V80.745ZM121.953,62.937c8.215,0,14.946-4.187,14.946-12.879V44.864c0-8.692-6.731-13.144-14.946-13.144-8.162,0-14.84,4.452-14.84,13.144v5.194C107.113,58.75,113.791,62.937,121.953,62.937Zm0-7.844c-2.915,0-5.247-1.749-5.247-4.611V44.334c0-2.862,2.332-4.717,5.247-4.717,3.021,0,5.406,1.855,5.406,4.717v6.148C127.359,53.344,124.974,55.093,121.953,55.093Zm18.762,22.366V68.82l-35.51,2.173v8.639ZM172.2,60.393c10.971-.265,18.868-5.3,22.843-11.448,4.028,6.148,11.925,11.183,22.9,11.448V51.86c-10.918-.848-17.755-8.745-17.755-15V31.985H189.952v4.876c0,6.254-6.837,14.151-17.755,15Zm47.17,19.451V70.993h-48.6v8.851Zm5.247-30.263V57.69h32.224l-.848,10.971h10.335l2.491-36.146H224.084v8.692h33.973l-.636,8.374Zm-2.438,30.263h48.6V70.993h-48.6Zm99.11-19.822V31.667H311V60.022Zm-13.25-1.8V51.489L284.557,52.5v-3.6h19.451V32.515h-29.15v6.731h19.451v3.392H274.858V59.545Zm3.127,21.094v1.431h10.123V61.559H311.163V64.9H287.154V61.559h-10.07V80.745Zm-24.009-8.533h24.009v2.491l-24.009.848Zm84.217-30.422V32.515h-44.2v7.844ZM371.9,63.1v-8H337.4V50.959h33.761V43.327h-43.99V63.1Zm1.7,16.748v-8.48H325v8.48ZM39.856,120.15v9.911H49.979V103.667H39.856v8.321h-8.48V104.25H21.889v4.611H13.038V104.25H3.5v24.539H31.376V120.15Zm-26.818,1.59v-5.83h8.851v5.83Zm3.18,22.9H49.979V131.6H5.724v5.618H39.485v2.12H5.724v13.409h45.05v-5.83H16.218ZM92.432,128.63v24.115h9.275V103.667H92.432v16.377h-6.89v8.586ZM53.795,151c3.763-1.643,6.837-4.77,8.745-9.7,1.8,5.247,4.5,8.533,8.374,10.229,3.816-1.7,6.519-5.035,8.321-10.282,1.908,4.982,4.982,8.109,8.8,9.752V140.025c-3.6-2.756-4.77-8.9-4.77-23.426V104.78h-8.48V116.6c0,14.522-.424,21.306-3.869,24.062-3.286-2.756-3.922-9.54-3.922-24.062V104.78H58.565V116.6c0,14.522-1.166,20.67-4.77,23.426Zm111.618-47.329h-10.07v38h10.07V126.139h5.83v-8.692h-5.83Zm-24.751,23.956v-3.71H142.3c4.876,0,8.957-4.346,8.957-9.805s-4.081-9.911-8.957-9.911H129.32c-4.929,0-8.9,4.452-8.9,9.911s3.975,9.805,8.9,9.805h1.8V128.1l-11.766.53v7.738l34.344-1.643v-7.738Zm-11.289-13.515a2.574,2.574,0,0,1,2.332-2.65h8.321a2.614,2.614,0,0,1,2.332,2.65,2.51,2.51,0,0,1-2.332,2.544h-8.321A2.473,2.473,0,0,1,129.373,114.108Zm-6.36,23.85v14.787h43.46v-7.738H133.189v-7.049Zm85.33-19.451v14.1h10.07V103.667h-10.07v6.784H197.849v8.056Zm-36.994,13.462c7.1-1.643,12.614-4.823,15.635-9.328,3.021,4.4,8.48,7.526,15.529,9.063v-8.957c-6.943-2.067-10.6-6.307-10.6-13.038v-5.724h-9.964v5.724c0,6.731-3.657,11.448-10.6,13.515Zm2.491,11.4c0,5.512,4.558,9.646,10.282,9.646h24.592c5.83,0,10.388-4.134,10.388-9.646,0-5.618-4.558-9.593-10.388-9.593H184.122C178.4,133.771,173.84,137.746,173.84,143.364Zm13.144,2.279c-1.7,0-3.074-.689-3.074-2.279,0-1.7,1.378-2.279,3.074-2.279h18.868c1.855,0,3.18.583,3.18,2.279,0,1.59-1.325,2.279-3.18,2.279Z" transform="translate(-2.226 41.446)" fill="#111"/></svg>