<svg xmlns="http://www.w3.org/2000/svg" width="422.569" height="121.502" viewBox="0 0 422.569 121.502"><path d="M48.283-13.939V-24.062h5.83v-8.215h-5.83v-8.056H38.213v26.394Zm-16.96-1.272V-39.75H21.836v4.611h-8.9V-39.75H3.445v24.539ZM12.932-28.09h8.9v5.83h-8.9ZM49.343,8.745V2.915h-33.6V.636H48.283V-12.4H5.671v5.618H38.213v2.12H5.671V8.745ZM91.637-22.737a8.867,8.867,0,0,0,8.9-8.8,8.969,8.969,0,0,0-8.9-8.957H64.183a8.935,8.935,0,0,0-8.9,8.957,8.833,8.833,0,0,0,8.9,8.8ZM66.992-29.68a1.839,1.839,0,0,1-1.961-1.855,1.87,1.87,0,0,1,1.961-1.855h22A1.916,1.916,0,0,1,91-31.535a1.884,1.884,0,0,1-2.014,1.855Zm35.245,17.172v-7.42h-48.6v7.42ZM90.259,7.314V8.745h9.752V-9.275h-44.2V8.745Zm-24.7-10.07h24.7V.477l-24.7.848Zm85.913,11.5V-13.038h5.459V-22.1h-5.459V-40.333h-9.646V8.745Zm-46.11-3.286C119.3.583,121.423-8.851,121.423-30.952v-7.685H105.894v8.586h7c0,13.939-.53,22.26-7.526,25.281Zm14.628,2.65c13.038-5.035,18.179-13.144,18.179-39.061v-7.685H123.013v8.586h6.413c0,18.6-2.65,24.539-9.434,27.931Zm84.058.636V-40.333H193.768V8.745ZM156.933,7A27.359,27.359,0,0,0,173.363-7.42,27.333,27.333,0,0,0,189.793,7V-3.392c-5.088-2.226-11.554-8-11.66-23v-3.392h10.918v-8.8H157.675v8.8h10.918v3.392c-.106,15-6.572,20.776-11.66,23Zm111.3-47.329h-10.07v38h10.07V-17.861h5.83v-8.692h-5.83ZM243.482-16.377v-3.71h1.643c4.876,0,8.957-4.346,8.957-9.805S250-39.8,245.125-39.8H232.14c-4.929,0-8.9,4.452-8.9,9.911s3.975,9.805,8.9,9.805h1.8V-15.9l-11.766.53v7.738L256.52-9.275v-7.738ZM232.193-29.892a2.574,2.574,0,0,1,2.332-2.65h8.321a2.614,2.614,0,0,1,2.332,2.65,2.51,2.51,0,0,1-2.332,2.544h-8.321A2.473,2.473,0,0,1,232.193-29.892Zm-6.36,23.85V8.745h43.46V1.007H236.009V-6.042Zm85.436-29.945h-8.533V-39.75H293.2v5.3h-8.639v-5.3h-9.7v26.924h27.878v-4.4h8.533v6.307h10.07V-40.333h-10.07ZM302.736-24.38v-4.452h8.533v4.452Zm-18.179,3.816v-6.2H293.2v6.2ZM310.845-1.431V9.275h10.494V-9.381H276.66v7.95Zm15.741-18.6c11.66-.053,19.186-2.385,22.684-6.466,3.5,4.081,11.024,6.413,22.684,6.466V-27.3c-11.607.053-17.225-2.385-17.543-5.512v-.106h16.96v-7.261h-44.2v7.261h16.96v.106c-.318,3.127-5.936,5.565-17.543,5.512ZM344.5-10.282v8.109h9.7v-8.109h19.4V-17.6H325v7.314ZM372.166,8.745v-7.1H337.133V-7.791h-9.964V8.745Zm51.834,0V-40.333H413.718V8.745ZM397.341,4.982V7.049h9.646V-38.69h-9.646v11.448h-9.805V-38.69h-9.858V7.049Zm-9.805-23.691h9.805V-3.657l-9.805.848ZM18.5,44.652c0,3.551-1.219,6.042-7.208,11.289-9.01,7.95-9.858,10.971-9.858,15V80H28.143V72.636h-16.8v-1.7c0-2.862,1.961-4.346,7.95-10.547s8.745-9.381,8.745-15.741V42.373c0-7.314-5.883-11.289-13.25-11.289-7.473,0-12.879,3.975-12.879,11.289v3.763h9.116V42.373c0-2.226,1.272-3.922,3.763-3.922a3.59,3.59,0,0,1,3.71,3.922Zm10.07,20.776v7.738H45.951v7.049h8.692V73.166h3.922V65.428H54.643V32.144H41.234Zm8.745,0L45.9,42.267V65.428Zm69.642,15.317V31.667H96.672V80.745ZM59.837,79C66.621,75.6,72.822,70.569,76.267,63.2,79.659,70.569,85.913,75.6,92.7,79V67.707C86.973,64,81.3,58.22,81.3,43.221V32.78H71.232V43.221c0,15-5.724,20.776-11.4,24.486Zm96.831-11.183V53.132h5.989V44.493h-5.989V31.667H146.6V67.813Zm-44.944-6.625c15.158-.106,29.15-6.307,29.15-23.373v-5.3H111.989v7.738h19.5c0,7.1-6.625,13.091-19.769,13.2Zm46,19.557v-7.95H124.444V63.467H114.268V80.745Zm64.819-22.684V47.938h5.83V39.723h-5.83V31.667h-10.07V58.061Zm-16.96-1.272V32.25H196.1v4.611h-8.9V32.25h-9.487V56.789ZM187.2,43.91h8.9v5.83h-8.9Zm36.411,36.835v-5.83H190V72.636h32.542V59.6H179.935v5.618h32.542v2.12H179.935V80.745ZM265.9,49.263a8.867,8.867,0,0,0,8.9-8.8,8.969,8.969,0,0,0-8.9-8.957H238.447a8.935,8.935,0,0,0-8.9,8.957,8.833,8.833,0,0,0,8.9,8.8ZM241.256,42.32a1.839,1.839,0,0,1-1.961-1.855,1.87,1.87,0,0,1,1.961-1.855h22a1.916,1.916,0,0,1,2.014,1.855,1.884,1.884,0,0,1-2.014,1.855ZM276.5,59.492v-7.42H227.9v7.42ZM264.523,79.314v1.431h9.752V62.725h-44.2v18.02Zm-24.7-10.07h24.7v3.233l-24.7.848Zm83.793-.477,2.332-36.252H281.218v7.791h34.715l-1.749,28.461Zm4.293,11.077V71.311H310.262V52.337H301.57V71.311h-5.406V52.337h-8.745V71.311H279.31v8.533Zm40.333-30.1V60.817h10.123V31.667H368.244V42.373h-8.48V49.74ZM331.3,60.181c6.837-.318,12.508-2.7,15.635-7.738,3.021,5.035,8.745,7.42,15.635,7.738v-7.95c-6.148-.53-10.971-4.134-11.024-11.5v-.477h10.494V32.568h-30.21v7.685h10.494v.477c0,7.367-4.823,10.971-11.024,11.5Zm2.491,11.289c0,5.512,4.558,9.54,10.282,9.54h24.592c5.83,0,10.388-4.028,10.388-9.54,0-5.618-4.558-9.487-10.388-9.487H344.076C338.352,61.983,333.794,65.852,333.794,71.47Zm12.932,2.279c-1.7,0-2.862-.9-2.862-2.279,0-1.484,1.166-2.279,2.862-2.279h19.239c1.908,0,3.021.795,3.021,2.279,0,1.378-1.113,2.279-3.021,2.279Z" transform="translate(-1.431 40.492)" fill="#111"/></svg>