<svg xmlns="http://www.w3.org/2000/svg" width="370.523" height="121.82" viewBox="0 0 370.523 121.82"><path d="M40.174-22.313a8.959,8.959,0,0,0,8.9-9.063,9.038,9.038,0,0,0-8.9-9.116h-27.4a9,9,0,0,0-8.9,9.116,8.925,8.925,0,0,0,8.9,9.063Zm-24.592-7.1a1.881,1.881,0,0,1-1.961-1.908,1.881,1.881,0,0,1,1.961-1.908H37.524a1.925,1.925,0,0,1,2.014,1.908,1.925,1.925,0,0,1-2.014,1.908Zm35.245,17.49v-7.367H2.226v7.367ZM40.492,8.957A8.811,8.811,0,0,0,49.4.106a8.878,8.878,0,0,0-8.9-8.851H12.455A8.832,8.832,0,0,0,3.6.106a8.766,8.766,0,0,0,8.851,8.851Zm-25.546-7.1A1.917,1.917,0,0,1,12.932,0a1.876,1.876,0,0,1,2.014-1.8h22.9A1.876,1.876,0,0,1,39.856,0a1.917,1.917,0,0,1-2.014,1.855Zm86.284,6.89V-40.333H90.948V8.745ZM54.113,7C60.9,3.6,67.1-1.431,70.543-8.8,73.935-1.431,80.189,3.6,86.973,7V-4.293C81.249-8,75.578-13.78,75.578-28.779V-39.22H65.508v10.441c0,15-5.724,20.776-11.4,24.486Zm97.838-18.02V-18.6H117.289v-3.339h34.132V-39.485h-44.2v7.314H141.4v3.18H107.219v17.967Zm1.7,18.868V-.795h-9.222V-9.222H135.1V-.795H123.861V-9.222H114.48V-.795h-9.434V7.844Zm32.33-22.472c6.678,0,12.3-2.968,13.674-8.745H208.4v9.646h10.123V-40.333H208.4v8.745h-8.745c-1.431-5.777-7.049-8.745-13.674-8.745-7.738,0-13.992,3.975-13.992,11.66v2.438C171.985-18.55,178.239-14.628,185.977-14.628ZM181.26-29.309c0-2.491,2.067-3.975,4.77-3.975s4.823,1.484,4.823,3.975v3.657c0,2.491-2.12,3.975-4.823,3.975s-4.77-1.484-4.77-3.975Zm32.224,16.748h-8.692v3.233c0,4.4-3.657,8.586-8.321,9.646V8.745A17.891,17.891,0,0,0,209.138.53,17.89,17.89,0,0,0,221.8,8.745V.318c-4.664-1.06-8.321-5.247-8.321-9.646ZM181.843-8.8v-3.233h-7.95V8.8l13.462-1.325V8.8h7.9V-12.031h-7.9V-8.8Zm0,10.335V-2.332h5.512V1.007Zm86.973-24.062v-7.314H234.26V-40.545h-9.911v18.02Zm1.961,12.031v-7.95h-48.6v7.95ZM269.346,8.745V1.007H234.419V-7.738h-10.07V8.745ZM48.6,55.146V32.515H4.4V55.146ZM14.31,40.73H38.743v6.307H14.31ZM31.641,81.275V68.131H50.827V59.545H2.226v8.586H21.359V81.275ZM82.256,58.326V80.745h8.268V31.667H82.256V50.058h-7.95v8.268Zm19.663,22.419V31.667h-8.48V80.745ZM54.166,79A23.561,23.561,0,0,0,66.409,66.488,23.934,23.934,0,0,0,78.758,79V69.085C73.087,65.11,70.7,58.379,70.7,45.659V41.578h7.473V33.416H54.7v8.162h7.473v4.081c0,12.72-2.385,19.451-8,23.426ZM136.581,41.79v-7.1H126.3V30.554H115.805v4.134H105.576v7.1ZM151.1,67.919V52.708h5.83V44.069H151.1v-12.4h-10.07V67.919ZM106.265,52.761c0,5.194,3.657,9.169,7.9,9.169h13.833c4.293,0,7.95-3.975,7.95-9.169,0-5.141-3.657-9.169-7.95-9.169H114.162C109.922,43.592,106.265,47.62,106.265,52.761Zm10.918,2.279a2.307,2.307,0,1,1,0-4.611h7.95a2.307,2.307,0,1,1,0,4.611Zm34.98,25.705v-7.95H118.72V64.58H108.544V80.745Zm64.978-20.352V32.515h-44.2V60.393ZM182.85,40.73h24.433V52.178H182.85Zm36.517,39.114V71.205H200.128v-9.01H189.9v9.01H170.766v8.639Zm50.4.9V31.667H259.541V80.745ZM239.083,62.937c8.215,0,14.946-4.187,14.946-12.879V44.864c0-8.692-6.731-13.144-14.946-13.144-8.162,0-14.84,4.452-14.84,13.144v5.194C224.243,58.75,230.921,62.937,239.083,62.937Zm0-7.844c-2.915,0-5.247-1.749-5.247-4.611V44.334c0-2.862,2.332-4.717,5.247-4.717,3.021,0,5.406,1.855,5.406,4.717v6.148C244.489,53.344,242.1,55.093,239.083,55.093Zm18.762,22.366V68.82l-35.51,2.173v8.639Zm63.335,3.286V31.667H310.9V80.745ZM274.063,79c6.784-3.392,12.985-8.427,16.43-15.794,3.392,7.367,9.646,12.4,16.43,15.794V67.707C301.2,64,295.528,58.22,295.528,43.221V32.78h-10.07V43.221c0,15-5.724,20.776-11.395,24.486Zm80.56-37.63V34.688h-9.646V30.554h-9.858v4.134h-9.593v6.678Zm8.056,8.586v10.6h10.07V31.667h-10.07V42.161h-7.208v7.791ZM326.215,51.33c0,4.611,3.339,8.321,7.473,8.321h12.826c4.134,0,7.473-3.71,7.473-8.321,0-4.717-3.339-8.427-7.473-8.427H333.688C329.554,42.9,326.215,46.613,326.215,51.33Zm10.229,1.8a1.861,1.861,0,1,1,0-3.71h7.473a1.861,1.861,0,1,1,0,3.71Zm26.235,26.182v1.431h10.07V62.089H328.494V80.745ZM338.564,68.979h24.115v3.392l-24.115.848Z" transform="translate(-2.226 40.545)" fill="#111"/></svg>