<svg xmlns="http://www.w3.org/2000/svg" width="482.565" height="121.767" viewBox="0 0 482.565 121.767"><path d="M35.881-11.713c7.844,0,13.356-6.2,13.356-13.992S43.725-39.75,35.881-39.75H17.066c-7.791,0-13.3,6.254-13.3,14.045s5.512,13.992,13.3,13.992ZM19.822-19.822A5.624,5.624,0,0,1,14.045-25.7a5.567,5.567,0,0,1,5.777-5.777H33.231A5.567,5.567,0,0,1,39.008-25.7a5.624,5.624,0,0,1-5.777,5.883Zm31,27.666V-.795H31.641v-9.328H21.359V-.795H2.226V7.844Zm50.4-18.815V-40.333H91v29.362Zm-15-21.253v-7.261H54.749v7.261Zm.53,19.292v-7.261H81.832L83.21-30.846h-8.9L73.14-20.193H67.787L66.674-30.846h-8.9L59.1-20.193H54.219v7.261ZM101.23,9.275V-9.434H56.71v7.95H90.577V9.275Zm9.593,1.272,4.346-12.879h-9.381L104.3,10.547Zm73.3-42.188v-7.844h-44.2v7.844Zm.53,22.737v-8h-34.5v-4.24H183.91v-7.632H139.92V-8.9Zm1.7,16.748V-.636H167.162V-7.208H156.88V-.636H137.747v8.48Zm4.24-19.451c10.971-.265,18.868-5.3,22.843-11.448,4.028,6.148,11.925,11.183,22.9,11.448V-20.14c-10.918-.848-17.755-8.745-17.755-15v-4.876H208.343v4.876c0,6.254-6.837,14.151-17.755,15Zm47.17,19.451V-1.007h-48.6V7.844Zm54.643-29.2V-3.922h10.123V-40.333H292.4v11.66h-9.964v7.314ZM255.46-9.646c6.943-1.007,12.614-3.5,15.635-8.48,2.968,4.982,8.639,7.473,15.635,8.48v-8.268c-6.1-.9-10.918-4.452-11.024-11.183v-2.226H286.2v-8.109H255.99v8.109h10.494v1.855c0,7.049-4.823,10.653-11.024,11.554ZM303.372,8.745V.795H268.71V-7.95H258.534v16.7ZM345.4-22.366a9.01,9.01,0,0,0,7.738-9.01,9.038,9.038,0,0,0-8.9-9.116h-27.4a9,9,0,0,0-8.9,9.116,8.911,8.911,0,0,0,8,9.01V-18.6h-9.646v7.314h48.6V-18.6H345.4Zm-3.816-10.865a1.925,1.925,0,0,1,2.014,1.908,1.925,1.925,0,0,1-2.014,1.908H319.643a1.881,1.881,0,0,1-1.961-1.908,1.881,1.881,0,0,1,1.961-1.908ZM324.943-22.313h11.448v3.71H324.943ZM316.516-8.745A8.832,8.832,0,0,0,307.665.106a8.766,8.766,0,0,0,8.851,8.851h28.037a8.811,8.811,0,0,0,8.9-8.851,8.878,8.878,0,0,0-8.9-8.851Zm2.491,10.6A1.917,1.917,0,0,1,316.993,0a1.876,1.876,0,0,1,2.014-1.8h22.9A1.876,1.876,0,0,1,343.917,0,1.917,1.917,0,0,1,341.9,1.855ZM16.059,32.144H7.208c0,2.756-3.074,5.035-6.254,5.035v6.89H6.519V80.215h9.54Zm5.618,37.842c0,7.314,5.936,11.289,13.3,11.289s13.3-3.975,13.3-11.289V42.373c0-7.314-5.936-11.289-13.3-11.289s-13.3,3.975-13.3,11.289Zm9.116-27.613a3.979,3.979,0,0,1,4.187-3.922,3.979,3.979,0,0,1,4.187,3.922V69.986a3.979,3.979,0,0,1-4.187,3.922,3.979,3.979,0,0,1-4.187-3.922Zm22.472,3.18c0,4.558,2.226,7.367,5.777,8.745-3.763,1.378-6.307,4.081-6.307,8.745V70.41c0,7.367,6.466,10.865,13.833,10.865S80.4,77.777,80.4,70.41V63.043c0-4.664-2.544-7.367-6.36-8.745,3.551-1.378,5.83-4.187,5.83-8.745v-3.6c0-7.314-5.936-10.865-13.3-10.865s-13.3,3.551-13.3,10.865Zm9.116-3.6a4.2,4.2,0,0,1,8.374,0v4.505a4.193,4.193,0,0,1-8.374,0Zm-.106,19.769a4.306,4.306,0,0,1,8.586,0v8.268a4.311,4.311,0,0,1-8.586,0Zm58.3,19.027v-22h3.816v22h8.48V31.667h-8.48V50.111h-3.816V31.667h-8.268V80.745Zm-35.3-1.166c13.78-3.021,23.585-13.3,23.585-39.962V33.363H85.542v8.586H99.958c0,11.554-2.385,24.751-14.681,28.62Zm84.429-10.706c0,2.544-2.014,3.975-4.77,3.975s-4.77-1.431-4.77-3.975V32.356h-9.593V70.2c0,7.844,6.413,10.865,14.363,10.865S179.3,78.042,179.3,70.2V32.356h-9.593Zm34.4-36.517V60.128L193.768,32.356H184.44V80h9.116V52.443L203.891,80h9.328V32.356Zm14.416,0V80h9.911V32.356Zm13.2,8.321h9.275V80h9.964V40.677h9.328V32.356H231.716Zm65.031,20.087c7.844,0,13.356-6.36,13.356-14.2,0-7.95-5.512-14.31-13.356-14.31H277.932c-7.791,0-13.3,6.36-13.3,14.31,0,7.844,5.512,14.2,13.3,14.2ZM280.688,52.5a5.638,5.638,0,0,1-5.777-5.936,5.667,5.667,0,0,1,5.777-5.936H294.1a5.667,5.667,0,0,1,5.777,5.936A5.638,5.638,0,0,1,294.1,52.5Zm31.005,27.348v-8.8h-48.6v8.8Zm49.714-18.338V53.821H326.745v-3.5h34.132V32.515h-44.2v7.42H350.86v3.286H316.675V61.506Zm1.7,18.338V71.311H343.917v-8H333.635v8H314.5v8.533ZM404.5,44.44c3.286,3.657,10.865,5.671,22.684,5.724v-6.2c-10.282.106-16.006-1.537-17.172-3.869H426.6v-6.2H409.69V30.554H399.408v3.339H382.395v6.2h16.589c-1.166,2.332-6.89,3.975-17.172,3.869v6.2C393.684,50.111,401.21,48.1,404.5,44.44Zm24.327,6.89h-48.6v6.254h19.4V60.6H382.395v5.512h34.344v1.749H382.395V80.745h45V74.968H392.2V73.113h34.4V60.6H409.319V57.584h19.5Zm48.866,6.731V47.938h5.83V39.723h-5.83V31.667h-10.07V58.061Zm-16.96-1.272V32.25h-9.487v4.611h-8.9V32.25h-9.487V56.789ZM442.338,43.91h8.9v5.83h-8.9Zm36.411,36.835v-5.83h-33.6V72.636h32.542V59.6H435.077v5.618h32.542v2.12H435.077V80.745Z" transform="translate(-0.954 40.492)" fill="#111"/></svg>