<svg xmlns="http://www.w3.org/2000/svg" width="515.955" height="122.721" viewBox="0 0 515.955 122.721"><path d="M37.683-17.066A11.436,11.436,0,0,0,49.237-28.408,11.436,11.436,0,0,0,37.683-39.75H15.317A11.436,11.436,0,0,0,3.763-28.408,11.436,11.436,0,0,0,15.317-17.066Zm-20.3-8.109c-2.173,0-3.763-1.325-3.763-3.18,0-1.749,1.59-3.18,3.763-3.18H35.669c2.12,0,3.763,1.325,3.763,3.18s-1.643,3.18-3.763,3.18ZM19.08,9.01,22.207-4.558h9.8V9.01h9.911V-4.558h8.9v-8.586H2.226v8.586h9.805L8.9,9.01ZM55.7-40.227v6.943h44.414v-6.943ZM82.733-19.4h17.914v-6.943H92.909l1.007-5.883H84.588l-.848,5.883H71.921l-.795-5.883H61.745l.954,5.883H55.173V-19.4H73.034V-15h-19.4v7.367h48.6V-15h-19.5ZM55.809-5.459v14.2h45V1.855H65.773V-5.459Zm96.937,14.2V-40.333H142.464V8.745Zm-31.8-.9c8.215,0,14.84-5.3,14.84-12.985V-26.606c0-7.738-6.625-12.985-14.84-12.985-8.162,0-14.681,5.247-14.681,12.985V-5.141C106.265,2.544,112.784,7.844,120.946,7.844ZM121.1-.318c-3.021,0-5.088-1.961-5.088-4.346V-27.136c0-2.226,2.067-4.4,5.088-4.4,2.968,0,5.088,2.173,5.088,4.4V-4.664C126.193-2.279,124.073-.318,121.1-.318ZM208.4-31.376H199.7c-1.325-5.936-7-8.957-13.727-8.957-7.738,0-13.992,3.975-13.992,11.66V-25.7c0,7.685,6.254,11.607,13.992,11.607,6.784,0,12.508-3.074,13.727-9.063H208.4v9.752h10.123V-40.333H208.4Zm-17.543,6.254c0,2.491-2.12,3.975-4.823,3.975s-4.77-1.484-4.77-3.975v-4.187c0-2.491,2.067-3.975,4.77-3.975s4.823,1.484,4.823,3.975ZM208.4,7.314V8.745h10.123V-11.872H174.264V8.745Zm0-11.925V.106L184.44.954V-4.611ZM259.7-23.85V-4.081h10.123V-40.333H259.7v8.321H249.259v8.162Zm-36.941,14.1c7.049-1.59,12.614-5.3,15.582-10.229,3.021,4.929,8.427,8.639,15.582,10.229v-9.116c-6.837-2.014-10.441-7.685-10.6-14.416v-6.731h-9.964v6.307c0,6.943-3.657,12.72-10.6,14.84Zm47.912,18.5V.795H236.009V-7.473H225.833V8.745Zm34.45-38.955v-7.1H294.839v-4.134H284.345v4.134H274.116v7.1ZM319.643-4.081V-19.292h5.83v-8.639h-5.83v-12.4h-10.07V-4.081ZM274.8-19.239c0,5.194,3.657,9.169,7.9,9.169h13.833c4.293,0,7.95-3.975,7.95-9.169,0-5.141-3.657-9.169-7.95-9.169H282.7C278.462-28.408,274.8-24.38,274.8-19.239Zm10.918,2.279a2.287,2.287,0,0,1-2.385-2.279,2.268,2.268,0,0,1,2.385-2.332h7.95a2.239,2.239,0,0,1,2.385,2.332,2.255,2.255,0,0,1-2.385,2.279Zm34.98,25.7V.795H287.26V-7.42H277.084V8.745ZM16.059,32.144H7.208c0,2.756-3.074,5.035-6.254,5.035v6.89H6.519V80.215h9.54Zm4.028,37.842c0,7.314,5.936,11.289,13.3,11.289s13.3-3.975,13.3-11.289V42.373c0-7.314-5.936-11.289-13.3-11.289s-13.3,3.975-13.3,11.289ZM29.2,42.373a3.979,3.979,0,0,1,4.187-3.922,3.979,3.979,0,0,1,4.187,3.922V69.986a3.979,3.979,0,0,1-4.187,3.922A3.979,3.979,0,0,1,29.2,69.986Zm20.882,3.18c0,4.558,2.226,7.367,5.777,8.745-3.763,1.378-6.307,4.081-6.307,8.745V70.41c0,7.367,6.466,10.865,13.833,10.865s13.833-3.5,13.833-10.865V63.043c0-4.664-2.544-7.367-6.36-8.745,3.551-1.378,5.83-4.187,5.83-8.745v-3.6c0-7.314-5.936-10.865-13.3-10.865s-13.3,3.551-13.3,10.865Zm9.116-3.6a4.2,4.2,0,0,1,8.374,0v4.505a4.193,4.193,0,0,1-8.374,0ZM59.1,61.718a4.306,4.306,0,0,1,8.586,0v8.268a4.311,4.311,0,0,1-8.586,0Zm65.72,19.027V58.962h6.89V49.9h-6.89V31.667h-10.07V80.745ZM80.772,79.579c18.126-3.021,28.673-15.688,28.673-39.008V33.363H81.037v8.586H99.852c.053,16.324-6.466,25.228-19.08,28.461Zm98.05,1.166V31.667H168.54V80.745ZM131.705,79a27.359,27.359,0,0,0,16.43-14.416A27.333,27.333,0,0,0,164.565,79V68.608c-5.088-2.226-11.554-8-11.66-23V42.214h10.918v-8.8H132.447v8.8h10.918v3.392c-.106,15-6.572,20.776-11.66,23ZM244.542,56.948V31.667H234.313V56.948Zm-15-17.808V32.515H198.061V39.14Zm.53,16.324V48.839H225.3l1.219-8.321h-8.9l-1.06,8.321h-5.565l-1.007-8.321h-8.9l1.219,8.321h-4.77v6.625ZM245.39,80.745V74.491H210.569V72.106h33.973V58.485h-44.1v5.883h34.026v2.279H200.446v14.1Zm4.823-26.023c11.448-.053,18.709-4.558,22.419-9.7,3.657,5.141,11.13,9.646,22.472,9.7V46.295c-10.971-.053-17.331-7-17.331-12.455V32.25H267.544v1.59c0,5.459-6.36,12.4-17.331,12.455Zm27.56,26.553V67.124h19.186v-8.48h-48.6v8.48h19.133V81.275Zm68.582-41.181V32.515H301.782v7.579Zm.53,20.4V52.973h-7.844L340.1,41.26h-9.328l-.954,11.713H318.106l-.9-11.713h-9.328l1.06,11.713h-7.685V60.5Zm1.484,19.345V71.629h-9.434v-9.54H329.5v9.54H318.583v-9.54H309.2v9.54h-9.434v8.215ZM380.8,41.79v-7.1h-9.646V30.554H361.3v4.134h-9.593v7.1Zm8,17.119v9.54h10.123V31.667H388.808V39.4h-6.519v7.367h6.519v4.77h-6.519v7.367ZM352.4,52.761c0,5.194,3.657,9.169,7.9,9.169h11.978c4.24,0,7.9-3.975,7.9-9.169,0-5.141-3.657-9.169-7.9-9.169H360.294C356.054,43.592,352.4,47.62,352.4,52.761Zm10.759,2.279a2.309,2.309,0,1,1,0-4.611h6.413a2.307,2.307,0,1,1,0,4.611Zm36.57,25.705v-7.95H365.382V65.057H355.206V80.745ZM448.433,41.79v-7.1H438.151V30.554H427.657v4.134H417.428v7.1Zm14.522,19.769V49.793h5.83V41.366h-5.83v-9.7h-10.07V61.559Zm-44.838-9.752c0,4.505,3.339,8.056,7.42,8.056h14.734a7.776,7.776,0,0,0,7.473-8.056c0-4.611-3.392-8.162-7.473-8.162H425.537C421.456,43.645,418.117,47.2,418.117,51.807Zm10.388,1.8a1.877,1.877,0,0,1-2.014-1.8,1.855,1.855,0,0,1,2.014-1.855h8.957a1.855,1.855,0,0,1,2.014,1.855,1.877,1.877,0,0,1-2.014,1.8Zm24.009,17.225V81.275h10.441V63.1H419.866v7.738ZM469.9,48.415c11.607-.053,18.974-3.021,22.631-7.367,3.657,4.346,10.971,7.314,22.737,7.367V41.26c-10.865-.053-17.543-3.657-17.543-8.851V31.19H487.494v1.219c0,5.194-6.678,8.8-17.6,8.851Zm47.011,9.911V50.8h-48.6v7.526ZM504.825,79.367v1.378h9.858V60.552h-9.858v2.756H480.286V60.552h-9.805V80.745Zm-24.539-9.222h24.539v2.438l-24.539.848Z" transform="translate(-0.954 41.446)" fill="#111"/></svg>