<svg xmlns="http://www.w3.org/2000/svg" width="312.094" height="102.248" viewBox="0 0 312.094 102.248"><path d="M-13.244-9.5c6.364,0,10.836-5.031,10.836-11.352S-6.88-32.25-13.244-32.25H-28.509c-6.321,0-10.793,5.074-10.793,11.395S-34.83-9.5-28.509-9.5Zm-13.029-6.579a4.563,4.563,0,0,1-4.687-4.773,4.517,4.517,0,0,1,4.687-4.687h10.879a4.517,4.517,0,0,1,4.687,4.687,4.563,4.563,0,0,1-4.687,4.773ZM-1.118,6.364V-.645H-16.684V-8.213h-8.342V-.645H-40.549V6.364ZM39.775-8.9V-32.723h-8.3V-8.9ZM27.606-26.144v-5.891H2.064v5.891Zm.43,15.652v-5.891h-4l1.118-8.643H17.931l-.946,8.643H12.642l-.9-8.643H4.515L5.59-16.383H1.634v5.891ZM39.775,7.525V-7.654H3.655V-1.2H31.132V7.525Zm-166.8,36.157H-113V29.363h-35.862V43.682h13.975v3.612h-15.738V53.4H-111.2V47.294h-15.824Zm6.149-9.073v3.827h-20.081V34.609Zm-.172,26.832v8.084H-113V55.937h-36.077v5.5Zm49.923-25.327V29.965h-36.163v6.149Zm.43,16.555V46.563h-6.364l.86-9.5h-7.568l-.774,9.5h-9.5l-.731-9.5h-7.568l.86,9.5h-6.235v6.106Zm1.2,15.695V61.7h-7.654v-7.74H-84.8V61.7h-8.858v-7.74h-7.611V61.7h-7.654v6.665Zm51.127-18.447V42.392H-13.5V35.727h-4.859v-6.45h-8.17v20.64ZM-28.81,47.552V41.4l-17.5,1.247V36.071h14.448V29.965H-54.481V49.272ZM-17.5,69.1V64.107h-27V62.129h26.144V51.121H-52.675V55.98h26.144v1.806H-52.675V69.1ZM16.6,41.317V52.755h8.17V29.277H16.6v5.5H8.084v6.536ZM-13.416,52.239c5.762-1.333,10.234-3.913,12.685-7.568,2.451,3.569,6.88,6.106,12.6,7.353V44.757c-5.633-1.677-8.6-5.117-8.6-10.578V29.535H-4.816v4.644c0,5.461-2.967,9.288-8.6,10.965Zm2.021,9.245c0,4.472,3.7,7.826,8.342,7.826H16.9c4.73,0,8.428-3.354,8.428-7.826,0-4.558-3.7-7.783-8.428-7.783H-3.053C-7.7,53.7-11.395,56.926-11.395,61.484ZM-.731,63.333c-1.376,0-2.494-.559-2.494-1.849,0-1.376,1.118-1.849,2.494-1.849H14.577c1.505,0,2.58.473,2.58,1.849,0,1.29-1.075,1.849-2.58,1.849ZM68.8,69.1V51.25h2.924V69.1H78.6V29.277h-6.88V44.241H68.8V29.277H62.092V69.1ZM59.985,36.888V30.653H40.334v6.235Zm.43,30.831V61.441H57.4l.9-23.306H52.073l-.731,23.306H49.063l-.731-23.306H42.1l.86,23.306H39.9v6.278Zm51,1.376h8.342V29.277h-8.342ZM99.373,37.619a29.828,29.828,0,0,1-.645,6.364H82.56v6.665H96.148C93.224,55.507,88.365,58.9,81.7,60.71v7.439c15.523-3.01,25.456-13.5,25.456-32.035V30.653H82.087v6.966ZM161.465,69.1V29.277h-8.342V69.1Zm-38.227-1.419a22.2,22.2,0,0,0,13.33-11.7,22.176,22.176,0,0,0,13.33,11.7V59.248c-4.128-1.806-9.374-6.493-9.46-18.662V37.834H149.3V30.7H123.84v7.138H132.7v2.752c-.086,12.169-5.332,16.856-9.46,18.662Z" transform="translate(150.629 32.723)" fill="#333"/></svg>