<svg xmlns="http://www.w3.org/2000/svg" width="440.707" height="102.248" viewBox="0 0 440.707 102.248"><path d="M-112.015,7.1V-32.723h-8.342V7.1Zm-38.227-1.419c5.5-2.752,10.535-6.837,13.33-12.814,2.752,5.977,7.826,10.062,13.33,12.814V-3.483c-4.644-3.01-9.245-7.7-9.245-19.866V-31.82H-141v8.471c0,12.169-4.644,16.856-9.245,19.866Zm78.69-14.62v-9.03h4.73v-6.837h-4.73v-7.912h-8.17V-8.944Zm-36.894-1.2c5.547-.258,10.32-2.279,12.771-6.407,2.365,4.128,7.095,6.149,12.728,6.407v-6.794c-4.9-.43-8.858-2.8-9.03-8.17v-.3h8.6v-6.579h-24.639v6.579h8.557v.3c-.215,5.332-4.042,7.74-8.987,8.17ZM-71.552,7.525V-7.7h-34.959v6.45h26.488V7.525Zm43.043-.43V-32.723h-8.342V7.1Zm-25.8-.731c6.665,0,12.04-4.3,12.04-10.535V-21.586c0-6.278-5.375-10.535-12.04-10.535-6.622,0-11.911,4.257-11.911,10.535V-4.171C-66.22,2.064-60.931,6.364-54.309,6.364Zm.129-6.622c-2.451,0-4.128-1.591-4.128-3.526V-22.016a3.879,3.879,0,0,1,4.128-3.569,3.908,3.908,0,0,1,4.128,3.569V-3.784C-50.052-1.849-51.772-.258-54.18-.258ZM23.478-3.741V-15.523h4.73v-7.052h-4.73V-32.723h-8.17V-3.741ZM9.718-9.116V-32.25H1.935v4.687H-5.031V-32.25H-12.9V-9.116ZM-5.031-21.457H1.935v6.063H-5.031ZM24.338,7.1V.645H-2.795V-6.923h-8.256V7.1Zm42.183,0V-32.723H58.179V7.1Zm-25.8-.731c6.665,0,12.04-4.3,12.04-10.535V-21.586c0-6.278-5.375-10.535-12.04-10.535-6.622,0-11.911,4.257-11.911,10.535V-4.171C28.81,2.064,34.1,6.364,40.721,6.364ZM40.85-.258c-2.451,0-4.128-1.591-4.128-3.526V-22.016a3.879,3.879,0,0,1,4.128-3.569,3.908,3.908,0,0,1,4.128,3.569V-3.784C44.978-1.849,43.258-.258,40.85-.258ZM108.1,7.1V-32.723H99.76V7.1ZM97.4,3.87V-3.268L79.335-2.021V-31.562H70.821V5.719ZM148.909,7.1V-10.578h4.429v-7.353h-4.429V-32.723h-7.826V7.1ZM111.5,4.429c11.309-3.956,13.029-11.61,13.029-29.541v-6.235h-12.6v6.966H117.6c0,11.309-.43,18.06-6.106,20.511Zm11.868,2.15c10.578-4.085,14.749-10.664,14.749-31.691v-6.235h-12.3v6.966h5.2c0,15.093-2.15,19.909-7.654,22.661ZM-181.374,48.326V29.965h-35.862V48.326Zm-27.821-11.7h19.823v5.117h-19.823Zm14.061,32.9V58.861h15.566V51.9H-219v6.966h15.523V69.525Zm55.9-16.469V46.907h-28.122V44.2h27.692V29.965h-35.862V35.9h27.735v2.58h-27.735V53.056Zm1.376,15.308V61.355h-7.482V54.518h-7.568v6.837h-9.116V54.518h-7.611v6.837h-7.654v7.009Zm3.784-20.382c9.288-.043,15.179-3.7,18.189-7.869,2.967,4.171,9.03,7.826,18.232,7.869V41.145c-8.9-.043-14.061-5.676-14.061-10.1V29.75h-8.3v1.29c0,4.429-5.16,10.062-14.061,10.1Zm22.36,21.543V58.044h15.566v-6.88h-39.431v6.88h15.523V69.525Zm48.375-33.153h-7.095c-1.161-4.687-5.719-7.1-11.094-7.1-6.278,0-11.352,3.225-11.352,9.46v1.978c0,6.235,5.074,9.417,11.352,9.417,5.418,0,9.976-2.408,11.094-7.1h7.095V50.6h8.213V29.277h-8.213Zm-14.233,4.816c0,2.021-1.72,3.225-3.913,3.225s-3.87-1.2-3.87-3.225V38.221c0-2.021,1.677-3.225,3.87-3.225s3.913,1.2,3.913,3.225ZM-82.861,54.26V51.637h-8.17V69.1l27.692-1.2v1.2h8.213V51.637h-8.213V54.26Zm0,8.6V59.893h19.522v2.236Zm58.007-9.976c6.364,0,10.836-5.16,10.836-11.524,0-6.45-4.472-11.61-10.836-11.61H-40.119c-6.321,0-10.793,5.16-10.793,11.61,0,6.364,4.472,11.524,10.793,11.524Zm-13.029-6.708A4.574,4.574,0,0,1-42.57,41.36a4.6,4.6,0,0,1,4.687-4.816H-27a4.6,4.6,0,0,1,4.687,4.816A4.574,4.574,0,0,1-27,46.176Zm25.155,22.188V61.226H-52.159v7.138ZM27.606,53.486V47.251H-.516V44.413H27.176V29.965H-8.686v6.02H19.049v2.666H-8.686V53.486Zm1.376,14.878V61.441H13.416V54.948H5.074v6.493H-10.449v6.923Zm43.9.731V29.277H66.177V42.865H61.533v6.966h4.644V69.1Zm9.159,0V29.277h-6.88V69.1ZM64.285,65.483V58.517L51.213,59.979V51.508h8.213L61.49,30.653H43.86v6.794h9.632l-.817,7.568H43.86v22.7Zm43.6-22.833v8.428h6.708v-21.8h-6.708v6.751h-4V29.75H97.395v4.042h-5.16V29.75H85.57V50.089h18.318V42.65Zm8.987-13.373v21.8h6.88v-21.8ZM92.235,44.542v-5.2h5.16v5.2ZM95.847,62.6h27.907V52.282H87.376v4.644H115.24v1.505H87.376V69.1H124.4v-4.9H95.847Zm80.668-3.741V29.277h-8.3V58.861Zm-38.141-5.848c5.676-.258,10.492-2.451,13.072-6.493,2.58,4.042,7.4,6.235,13.115,6.493V46.219c-4.988-.43-9.245-3.268-9.331-8.772v-.86h8.9V30.008H138.8v6.579h8.9v.86c-.086,5.461-4.3,8.342-9.331,8.772ZM177.2,69.1v-6.45H149.3V54.862h-8.428V69.1ZM216.849,58.6V47.079h4.859V40.027h-4.859V29.277h-8.17V58.6ZM206.4,52.024V45.187l-17.5.946V36.415h14.448v-6.45H180.729V53.314ZM217.709,69.1v-6.45H190.834V55.077h-8.256V69.1Z" transform="translate(218.999 32.723)" fill="#333"/></svg>