<svg xmlns="http://www.w3.org/2000/svg" width="493.324" height="267.648" viewBox="0 0 493.324 267.648"><g transform="translate(-128.364 -3644.7)"><path d="M-79.2-31.044v-7.7h-43.368v7.7Zm.52,22.308v-7.852h-33.852v-4.16H-79.4v-7.488h-43.16v19.5ZM-77.012,7.7V-.624H-95.836V-7.072h-10.088V-.624H-124.7V7.7Zm18.46-20.488c7.956,0,14.456-3.64,14.456-11.128v-4.42c0-7.54-6.5-11.232-14.456-11.232-8.008,0-14.508,3.692-14.508,11.232v4.42C-73.06-16.432-66.56-12.792-58.552-12.792Zm31.1,1.56v-28.34H-37.544v28.34Zm-31.1-8.424c-2.756,0-4.784-1.508-4.784-3.8v-5.356c0-2.288,2.028-3.9,4.784-3.9,2.652,0,4.784,1.612,4.784,3.9v5.356C-53.768-21.164-55.9-19.656-58.552-19.656ZM-27.456,9.1V-9.724H-71.24v7.8h33.332V9.1Zm5.044-20.488C-11.648-11.648-3.9-16.588,0-22.62c3.952,6.032,11.7,10.972,22.464,11.232V-19.76c-10.712-.832-17.42-8.58-17.42-14.716V-39.26H-4.992v4.784c0,6.136-6.708,13.884-17.42,14.716ZM23.868,7.7V-.988H-23.816V7.7ZM73.32,8.58V-39.572H63.232V8.58Zm-14.2-38.948v-7.54H27.716v7.54Zm.52,37.284V-.676H54.7L56-28.86H46.9L45.812-.676H41.08L40.092-28.86H30.94L32.188-.676H27.2V6.916ZM113.62-39.572V-11.18h10.088V-39.572Zm-5.564.832H78.26v6.812H99.216a12.761,12.761,0,0,1-.364,3.224H78.78v6.5h15.7C90.688-19.4,84.864-18.148,78-18.1v6.864c15.08-.052,30.056-5.3,30.056-23.3Zm-18.044,28.7c-5.616,0-10.088,3.9-10.088,9.412,0,5.408,4.472,9.464,10.088,9.464H114.14c5.72,0,10.192-4.056,10.192-9.464,0-5.512-4.472-9.412-10.192-9.412Zm2.6,11.648C90.948,1.612,89.8.78,89.8-.624c0-1.456,1.144-2.236,2.808-2.236h18.876c1.82,0,2.964.78,2.964,2.236,0,1.4-1.144,2.236-2.964,2.236Zm-310.7,48.236h16.952V32.532H-244.5V49.848h16.9v4.368h-19.032V61.6h47.684V54.216h-19.136Zm7.436-10.972V43.5h-24.284V38.876Zm-.208,32.448V81.1h9.724V64.668h-43.628v6.656ZM-150.488,40.7V33.26H-194.22V40.7Zm.52,20.02V53.332h-7.7l1.04-11.492h-9.152l-.936,11.492H-178.2l-.884-11.492h-9.152l1.04,11.492h-7.54v7.384Zm1.456,18.98v-8.06h-9.256v-9.36h-9.256v9.36h-10.712v-9.36h-9.2v9.36H-196.2V79.7Zm53.092.884V32.428h-8.112V48.86h-5.616v8.424h5.616v23.3Zm11.076,0V32.428h-8.32V80.58Zm-21.476-4.368V67.788l-15.808,1.768V59.312h9.932l2.5-25.22h-21.32v8.216h11.648l-.988,9.152h-10.66V78.916ZM-53.092,48.6V58.792h8.112V32.428h-8.112v8.164h-4.836V33H-65.78v4.888h-6.24V33h-8.06V57.6h22.152v-9Zm10.868-16.172V58.792h8.32V32.428Zm-29.8,18.46V44.6h6.24v6.292Zm4.368,21.84H-33.9V60.248H-77.9v5.616h33.7v1.82H-77.9v12.9h44.772V74.652H-67.652ZM25.74,68.516,28.964,33.26H-14.924v8.684H18.148L15.6,68.516ZM30.888,79.7V70.8H-16.8V79.7Zm63.6.884V32.428H84.4V80.58Zm-31.2-.884c8.06,0,14.56-5.2,14.56-12.74V45.9c0-7.592-6.5-12.74-14.56-12.74-8.008,0-14.4,5.148-14.4,12.74v21.06C48.88,74.5,55.276,79.7,63.284,79.7Zm.156-8.008c-2.964,0-4.992-1.924-4.992-4.264V45.376c0-2.184,2.028-4.316,4.992-4.316,2.912,0,4.992,2.132,4.992,4.316V67.424C68.432,69.764,66.352,71.688,63.44,71.688ZM143.312,60.82V49.8h5.72V41.58h-5.72V32.428h-9.88V60.82ZM98.7,59.624c7.02-1.664,12.532-5.1,15.444-9.88,2.964,4.524,8.424,7.8,15.392,9.36V50.576c-6.864-2.08-10.5-7.28-10.5-14.04v-3.8H109.2v3.8c0,6.812-3.588,12.48-10.5,14.56Zm2.288,11.8c0,5.356,4.472,9.412,10.088,9.412h23.192c5.72,0,10.192-4.056,10.192-9.412,0-5.512-4.472-9.412-10.192-9.412H111.072C105.456,62.016,100.984,65.916,100.984,71.428Zm12.9,2.184c-1.664,0-3.016-.676-3.016-2.184,0-1.664,1.352-2.236,3.016-2.236H131.4c1.872,0,3.172.572,3.172,2.236,0,1.508-1.3,2.184-3.172,2.184Zm67.7-12.636c7.7,0,13.1-6.24,13.1-13.936,0-7.8-5.408-14.04-13.1-14.04h-18.46c-7.644,0-13.052,6.24-13.052,14.04,0,7.7,5.408,13.936,13.052,13.936Zm-15.756-8.112a5.531,5.531,0,0,1-5.668-5.824,5.56,5.56,0,0,1,5.668-5.824h13.156a5.56,5.56,0,0,1,5.668,5.824,5.531,5.531,0,0,1-5.668,5.824ZM196.248,79.7V71.064H148.564V79.7ZM245.024,61.7v-7.54H211.016V50.732H244.5V33.26H201.136v7.28h33.54v3.224h-33.54V61.7ZM246.688,79.7V71.324H227.864V63.472H217.776v7.852H199V79.7Z" transform="translate(375 3755)" fill="#fff"/><path d="M-144.274-12.74V-39.572h-9.88V-33.9h-4.732v7.384h4.732v13.78Zm-23.92-10.608a7.946,7.946,0,0,0,8.268-7.852,7.946,7.946,0,0,0-8.268-7.852H-181.4a7.9,7.9,0,0,0-8.216,7.852,7.9,7.9,0,0,0,8.216,7.852Zm-2.184-9.568a1.936,1.936,0,0,1,1.924,1.82,1.936,1.936,0,0,1-1.924,1.82h-8.684a1.9,1.9,0,0,1-1.924-1.82,1.9,1.9,0,0,1,1.924-1.82Zm-7.7,33.852h33.8V-11.336h-26.78l.78-4.056h14.508v-6.4h-35.412v6.4h11.7l-.78,4.056h-7.28v5.408h33.748v1.976h-33.748V8.58H-143.7V3.068h-34.372Zm52.052-7.384V1.144h17.056V8.06h8.528V1.144h3.848V-6.448h-3.848V-39.1h-13.156Zm8.58,0,8.424-22.724V-6.448Zm31.98-7.956a3.88,3.88,0,0,1,4.108-3.38A3.851,3.851,0,0,1-77.3-13.832V-1.976a4.123,4.123,0,0,1-4.316,3.848A4.091,4.091,0,0,1-85.93-1.976v-4h-9v4C-94.926,5.2-88.842,9.1-81.614,9.1S-67.938,5.2-67.938-1.976V-13.364c0-7.436-3.9-11.232-11.128-11.232a11.949,11.949,0,0,0-6.4,1.924v-9H-68.3V-38.9H-94.458V-13.52h9ZM-58.63,10.348l4.264-12.636h-9.2l-1.456,12.636Zm5.876-12.324C-52.754,5.2-46.93,9.1-39.7,9.1S-26.65,5.2-26.65-1.976V-29.068c0-7.176-5.824-11.076-13.052-11.076s-13.052,3.9-13.052,11.076Zm8.944-27.092A3.9,3.9,0,0,1-39.7-32.916a3.9,3.9,0,0,1,4.108,3.848V-1.976A3.9,3.9,0,0,1-39.7,1.872,3.9,3.9,0,0,1-43.81-1.976ZM-22.282-1.976C-22.282,5.2-16.458,9.1-9.23,9.1S3.822,5.2,3.822-1.976V-29.068C3.822-36.244-2-40.144-9.23-40.144s-13.052,3.9-13.052,11.076Zm8.944-27.092A3.9,3.9,0,0,1-9.23-32.916a3.9,3.9,0,0,1,4.108,3.848V-1.976A3.9,3.9,0,0,1-9.23,1.872a3.9,3.9,0,0,1-4.108-3.848ZM8.71-1.976C8.71,5.2,14.534,9.1,21.762,9.1S34.814,5.2,34.814-1.976V-29.068c0-7.176-5.824-11.076-13.052-11.076S8.71-36.244,8.71-29.068Zm8.944-27.092a3.9,3.9,0,0,1,4.108-3.848,3.9,3.9,0,0,1,4.108,3.848V-1.976a3.9,3.9,0,0,1-4.108,3.848,3.9,3.9,0,0,1-4.108-3.848ZM76.362-4.94v3.172h9.88v-37.8h-9.88V-11.44H62.79v6.5Zm-13-17.888a8.082,8.082,0,0,0,8.268-8.06,8.1,8.1,0,0,0-8.268-8.164H49.114A8.028,8.028,0,0,0,40.9-30.888a8.005,8.005,0,0,0,8.216,8.06ZM60.814-32.76a2.009,2.009,0,0,1,1.976,1.976,1.992,1.992,0,0,1-1.976,1.872H51.766a1.944,1.944,0,0,1-1.924-1.872,1.965,1.965,0,0,1,1.924-1.976ZM52.39-4.316h6.032l1.664-9.464H74.75V-20.9H39.338v7.124H50.882L49.634-6.708h-6.6V8.58H87.022V1.56H52.39Zm84.552-10.4V-39h-9.88v4.628H103.506V-39H93.574v24.284ZM103.506-27.2h23.556V-22.2H103.506ZM120.3,9.1V-2.808h18.824v-8.008H91.442v8.008h18.772V9.1Zm69.94-.52V-39.572h-9.88v23.556H168.3v8.268h12.064V8.58ZM173.03-29.9v-8.008H144.69V-29.9Zm3.536,34.632V-3.8L154.622-2.184V-18.772h17.784v-7.8H144.69V6.916Z" transform="translate(375 3902)" fill="#fff"/><path d="M-130.416-4.472V-39h-3.12V-4.472Zm-16.068-9.776V-37.856h-26.052v23.608Zm-22.932-20.54H-149.6v17.472h-19.812Zm39.988,42.952V5.148h-37.388V-8.164h-3.12V8.164ZM-82.68-20.02v8.892h3.12V-39h-3.12v6.24H-96.772v-5.356h-3.12v8.164h-19.084v-8.164h-3.12v23.5h25.324V-20.02Zm0-3.016H-96.772v-6.708H-82.68Zm-36.3,5.408v-9.256h19.084v9.256Zm8.268,8.268c-5.668,0-10.14,3.588-10.14,8.892s4.472,8.892,10.14,8.892h22c5.668,0,10.14-3.588,10.14-8.892S-83.044-9.36-88.712-9.36Zm.156,14.768c-4,0-7.176-2.34-7.176-5.876s3.172-5.824,7.176-5.824h21.684c4,0,7.176,2.288,7.176,5.824s-3.172,5.876-7.176,5.876Zm37.544-20.54c6.656-1.248,13.52-5.1,14.82-11.648,1.3,6.552,8.164,10.4,14.82,11.648V-18.46c-6.188-1.144-12.948-5.252-13.208-13.416v-.156h12.688V-35.1h-12.74v-5.2h-3.12v5.2h-12.74v3.068h12.74v.156c-.26,8.164-7.072,12.272-13.26,13.416Zm40.352-9.2v10.712h3.12V-39h-3.12v11.648H-44.564v3.016Zm4.108,32.5V5.148H-65.936v-5.2h36.4v-10.92h-39.52V-7.9h36.4v4.94h-36.4V8.164ZM9.1-17.108c6.864,0,11.856-4.524,11.856-10.4,0-5.928-4.992-10.452-11.856-10.452H-9.1c-6.864,0-11.856,4.524-11.856,10.452,0,5.876,4.992,10.4,11.856,10.4ZM-8.632-20.124c-5.252,0-9.2-3.016-9.2-7.384s3.952-7.436,9.2-7.436H8.632c5.3,0,9.2,3.016,9.2,7.436,0,4.368-3.9,7.384-9.2,7.384ZM-10.764,8.424-7.02-7.384H8.58V8.424H11.7V-7.384H23.5V-10.4H-23.5v3.016h13.26L-13.988,8.424ZM30-38.168v3.016H70.876v-3.016ZM52-20.332H71.4V-23.4H61.1l1.82-10.712H59.748L57.98-23.4H42.744L40.976-34.112H37.8L39.572-23.4H29.484v3.068h19.4v8.008H26.936v3.016H73.944v-3.016H52ZM30.628-4.784V8.164h40.4V5.148H33.748V-4.784Zm78.156-6.6c7.644,0,13.052-5.772,13.052-13.26,0-7.54-5.408-13.26-13.052-13.26H92.976c-7.644,0-13.052,5.72-13.052,13.26,0,7.488,5.408,13.26,13.052,13.26Zm-15.5-3.068A9.874,9.874,0,0,1,83.044-24.648,9.874,9.874,0,0,1,93.288-34.84h15.236a9.832,9.832,0,0,1,10.192,10.192,9.832,9.832,0,0,1-10.192,10.192Zm31.1,21.06V3.536H77.376V6.6Zm47.268-17.576V-14.04H134.628v-8.892h36.5V-37.648H131.508v3.068h36.5v8.632h-36.5v14.976ZM174.824,6.6V3.536H152.88V-7.852h-3.12V3.536H127.816V6.6Z" transform="translate(375 3685)" fill="#fff"/></g></svg>