<svg xmlns="http://www.w3.org/2000/svg" xmlns:xlink="http://www.w3.org/1999/xlink" width="615.2" height="376.39" viewBox="0 0 615.2 376.39"><defs><filter id="a" x="41.65" y="15" width="533.175" height="259.815" filterUnits="userSpaceOnUse"><feOffset dy="3" input="SourceAlpha"/><feGaussianBlur stdDeviation="30" result="b"/><feFlood flood-color="#0515d2"/><feComposite operator="in" in2="b"/><feComposite in="SourceGraphic"/></filter><filter id="c" x="0" y="117" width="615.2" height="259.39" filterUnits="userSpaceOnUse"><feOffset dy="3" input="SourceAlpha"/><feGaussianBlur stdDeviation="30" result="d"/><feFlood flood-color="#0515d2"/><feComposite operator="in" in2="d"/><feComposite in="SourceGraphic"/></filter></defs><g transform="translate(-97.4 -512.301)"><path d="M-130.475-49.81V-63.58h-72.25v13.77Zm.85,35.785V-28.05H-183.77V-32.9h52.955V-46.24h-71.91v32.215Zm2.125,26.86V-2.125H-157v-9.52h-19.21v9.52h-29.5v14.96ZM-96.645-20.74c13.175,0,23.97-5.95,23.97-18.275v-7.31c0-12.495-10.795-18.53-23.97-18.53-13.26,0-24.055,6.035-24.055,18.53v7.31C-120.7-26.69-109.9-20.74-96.645-20.74Zm51.51,2.38v-46.5H-64.26v46.5ZM-96.645-32.9c-3.315,0-5.695-2.125-5.695-5.1v-9.35A5.418,5.418,0,0,1-96.645-52.7a5.522,5.522,0,0,1,5.695,5.355v9.35C-90.95-35.02-93.5-32.9-96.645-32.9Zm51.51,47.855v-31.2H-117.98V-2.21h52.87V14.96Zm8.16-33.235C-19.125-18.7-7.055-26.35,0-35.955,7.055-26.35,19.125-18.7,37.06-18.275V-33.49C19.21-34.85,9.6-47.6,9.6-57.12v-7.31H-9.52v7.31c0,9.52-9.6,22.27-27.455,23.63ZM39.1,12.835V-2.89H-39.1V12.835Zm82.365,1.275V-64.855H102.34V14.11ZM97.24-48.79V-62.3H45.9V-48.79Zm.85,60.35V-1.955H91.375l2.04-44.71h-17L74.8-1.955H68.425l-1.53-44.71h-17L51.85-1.955h-6.8V11.56Zm87.55-76.415v46.58h19.125v-46.58Zm-6.715,1.275H129.2v12.07h33.32A25.329,25.329,0,0,1,162.1-47H130.05v11.39h24.055c-6.035,3.825-14.875,5.525-25.33,5.525v12.155c24.4,0,50.15-8.075,50.15-38.165ZM148.41-16.575c-9.18,0-16.49,6.46-16.49,15.555,0,8.84,7.31,15.555,16.49,15.555h40.545c9.35,0,16.66-6.715,16.66-15.555,0-9.095-7.31-15.555-16.66-15.555ZM153.935,1.7c-2.04,0-3.23-1.02-3.23-2.72,0-1.87,1.19-2.805,3.23-2.805h29.41q3.57,0,3.57,2.805c0,1.7-1.19,2.72-3.57,2.72Z" transform="translate(405 577.156)" fill="#fff"/><g transform="matrix(1, 0, 0, 1, 97.4, 512.3)" filter="url(#a)"><path d="M-127.925-36.21h27.2V-64.855h-72.25V-36.21h27.115v6.545h-30.09V-16.49h78.2V-29.665h-30.175Zm9.265-17.6v6.545h-36.38v-6.545ZM-119.085-.34v15.3h18.36V-11.985H-173.4V-.34Zm101.66-49.98V-63.58h-72.25v13.26Zm.85,32.215v-13.26H-28.22l1.53-17.255H-43.775L-45.05-31.365H-62.39L-63.58-48.62H-80.665l1.53,17.255h-11.39V-18.1Zm2.125,30.94V-1.615H-28.22V-15.98H-45.475V-1.615h-16.15V-15.98H-78.88V-1.615H-92.65v14.45ZM74.12,14.11V-64.855H59.245V-38.93h-8.16v15.3h8.16V14.11Zm18.53,0V-64.855H77.435V14.11ZM57.12,7.225v-15.3l-24.4,2.8V-20.06H47.43L51.68-62.3H16.15V-47.43H33.66L32.3-34.17H16.15V11.56ZM142.545-37.57v16.235H157.42v-43.52H142.545V-52.02H136.17V-64.005h-14.2v7.4H114.24v-7.4H99.45V-23.12h36.72V-37.57Zm18.19-27.285v43.52H175.95v-43.52Zm-46.5,29.92V-44.8h7.735v9.86Zm8.33,36.21h53.38V-19.3H103.02V-9.69H156.4v2.465H103.02V14.11h74.205V3.91H122.57Z" transform="translate(307.6 166.85)" fill="#fff"/></g><g transform="matrix(1, 0, 0, 1, 97.4, 512.3)" filter="url(#c)"><path d="M-147.22-5.44l5.27-58.14h-73.1v15.725h52.615L-166.43-5.44Zm7.82,18.275V-3.315h-78.2v16.15ZM-33.235,14.11V-64.855H-52.36V14.11Zm-51.6-1.275c13.26,0,24.14-8.5,24.14-20.995V-42.585c0-12.5-10.88-21-24.14-21-13.175,0-23.97,8.5-23.97,21V-8.16C-108.8,4.335-98.005,12.835-84.83,12.835Zm.255-14.365a5.921,5.921,0,0,1-6.12-5.78V-43.435a6.1,6.1,0,0,1,6.12-5.865,6.179,6.179,0,0,1,6.205,5.865V-7.31A6,6,0,0,1-84.575-1.53ZM47.6-18.275v-17.17h8.84V-50.32H47.6V-64.855H28.9v46.58ZM-26.35-19.89c11.815-2.635,20.06-7.82,25.415-15.3C4.5-28.135,12.665-23.2,24.31-20.74V-36.125c-11.56-3.4-16.065-11.9-16.065-22.78V-64.43h-18.53v5.525c0,10.88-4.5,20.23-16.065,23.63Zm3.57,18.87c0,8.84,7.31,15.555,16.49,15.555H32.64c9.35,0,16.66-6.715,16.66-15.555,0-9.095-7.31-15.555-16.66-15.555H-6.29C-15.47-16.575-22.78-10.115-22.78-1.02ZM-.34,1.7C-2.38,1.7-4,1.02-4-1.02-4-3.315-2.38-3.825-.34-3.825H26.6c2.38,0,4,.51,4,2.805,0,2.04-1.615,2.72-4,2.72Zm111.1-19.635c12.58,0,21.42-10.285,21.42-22.95,0-12.835-8.84-23.12-21.42-23.12H79.56c-12.5,0-21.335,10.285-21.335,23.12,0,12.665,8.84,22.95,21.335,22.95ZM85.17-32.555c-4.675,0-7.82-3.57-7.82-8.33s3.145-8.33,7.82-8.33h20.145c4.675,0,7.82,3.57,7.82,8.33s-3.145,8.33-7.82,8.33Zm49.13,45.39V-2.72H56.1V12.835ZM215.475-16.66V-30.09H160.99v-4.25h53.635V-63.58h-72.25v12.92H196.01v3.91H142.375v30.09ZM217.6,12.835V-2.3H188.1V-14.11H168.9V-2.3H139.4v15.13Z" transform="translate(307.6 268.85)" fill="#fff"/></g></g></svg>